<svg width="53" height="21" viewBox="0 0 53 21" fill="none" xmlns="http://www.w3.org/2000/svg">
<path d="M0 1.57495C0 1.02267 0.447715 0.574951 1 0.574951H47.6735C48.2258 0.574951 48.6735 1.02267 48.6735 1.57495V7.05147C48.6735 7.37935 48.8342 7.68641 49.1037 7.87324L51.8149 9.75318C52.3884 10.1509 52.3884 10.999 51.8149 11.3967L49.1037 13.2767C48.8342 13.4635 48.6735 13.7706 48.6735 14.0984V19.575C48.6735 20.1272 48.2258 20.575 47.6735 20.575H1C0.447715 20.575 0 20.1272 0 19.575V1.57495Z" fill="#4084C5"/>
<path d="M12.03 14.4303H7.38V13.5003L9.07 11.6603C9.41 11.2936 9.68333 10.9803 9.89 10.7203C10.0967 10.4536 10.2467 10.207 10.34 9.9803C10.44 9.75363 10.49 9.50696 10.49 9.2403C10.49 8.91363 10.4067 8.6703 10.24 8.5103C10.08 8.34363 9.86667 8.2603 9.6 8.2603C9.33333 8.2603 9.08 8.32363 8.84 8.4503C8.60667 8.5703 8.36 8.74363 8.1 8.9703L7.37 8.1403C7.56333 7.96696 7.76667 7.8103 7.98 7.6703C8.19333 7.52363 8.44 7.40696 8.72 7.3203C9.00667 7.23363 9.33667 7.1903 9.71 7.1903C10.1433 7.1903 10.5167 7.27363 10.83 7.4403C11.15 7.6003 11.3967 7.82363 11.57 8.1103C11.7433 8.39696 11.83 8.7303 11.83 9.1103C11.83 9.40363 11.7867 9.67363 11.7 9.9203C11.62 10.167 11.5 10.4103 11.34 10.6503C11.18 10.8903 10.99 11.137 10.77 11.3903C10.55 11.6436 10.3033 11.9203 10.03 12.2203L9.06 13.2803V13.3403H12.03V14.4303ZM17.2002 8.9203C17.2002 9.2403 17.1368 9.5203 17.0102 9.7603C16.8835 10.0003 16.7102 10.197 16.4902 10.3503C16.2768 10.497 16.0302 10.6036 15.7502 10.6703V10.7003C16.2902 10.767 16.6968 10.9436 16.9702 11.2303C17.2502 11.517 17.3902 11.897 17.3902 12.3703C17.3902 12.7836 17.2968 13.1536 17.1102 13.4803C16.9235 13.807 16.6302 14.0636 16.2302 14.2503C15.8368 14.437 15.3268 14.5303 14.7002 14.5303C14.3202 14.5303 13.9768 14.497 13.6702 14.4303C13.3635 14.3703 13.0668 14.2736 12.7802 14.1403V13.0303C13.0735 13.1836 13.3768 13.3003 13.6902 13.3803C14.0035 13.4603 14.2968 13.5003 14.5702 13.5003C15.0902 13.5003 15.4568 13.397 15.6702 13.1903C15.8835 12.977 15.9902 12.6836 15.9902 12.3103C15.9902 12.0703 15.9335 11.8736 15.8202 11.7203C15.7135 11.567 15.5402 11.4536 15.3002 11.3803C15.0668 11.3003 14.7468 11.2603 14.3402 11.2603H13.8202V10.2503H14.3502C14.7235 10.2503 15.0202 10.2036 15.2402 10.1103C15.4668 10.017 15.6302 9.88696 15.7302 9.7203C15.8302 9.55363 15.8802 9.3603 15.8802 9.1403C15.8802 8.85363 15.7935 8.6303 15.6202 8.4703C15.4535 8.3103 15.2102 8.2303 14.8902 8.2303C14.6768 8.2303 14.4768 8.25696 14.2902 8.3103C14.1035 8.36363 13.9368 8.43363 13.7902 8.5203C13.6435 8.6003 13.5135 8.68696 13.4002 8.7803L12.8002 7.9103C12.9735 7.77696 13.1668 7.65696 13.3802 7.5503C13.6002 7.43696 13.8435 7.3503 14.1102 7.2903C14.3768 7.22363 14.6768 7.1903 15.0102 7.1903C15.7102 7.1903 16.2502 7.34696 16.6302 7.6603C17.0102 7.96696 17.2002 8.38696 17.2002 8.9203ZM23.0703 12.9003H22.2303V14.4303H20.9203V12.9003H17.9903V11.9603L20.9603 7.2703H22.2303V11.8703H23.0703V12.9003ZM20.9203 10.2703C20.9203 10.1303 20.9203 9.98696 20.9203 9.8403C20.927 9.68696 20.9336 9.53696 20.9403 9.3903C20.947 9.24363 20.9536 9.1103 20.9603 8.9903C20.967 8.8703 20.9703 8.77696 20.9703 8.7103H20.9303C20.877 8.83696 20.817 8.96696 20.7503 9.1003C20.6836 9.23363 20.617 9.36363 20.5503 9.4903L19.1803 11.8703H20.9203V10.2703ZM24.3305 14.4303L26.8705 8.3803H23.5705V7.2903H28.2905V8.1403L25.7405 14.4303H24.3305Z" fill="white"/>
<path d="M35.2935 8.44931L32.3898 8.88992L32.3383 8.90087C32.2605 8.9225 32.1895 8.96537 32.1327 9.0251C32.0758 9.08483 32.0351 9.15928 32.0148 9.24085C31.9944 9.32241 31.9951 9.40818 32.0168 9.48938C32.0384 9.57057 32.0803 9.6443 32.1381 9.70303L34.2417 11.8461L33.7456 14.8732L33.7397 14.9256C33.7349 15.0099 33.7516 15.0939 33.7881 15.1692C33.8246 15.2445 33.8796 15.3083 33.9474 15.3541C34.0152 15.3998 34.0933 15.4259 34.1739 15.4296C34.2545 15.4333 34.3346 15.4146 34.406 15.3752L37.0029 13.9462L39.5939 15.3752L39.6394 15.3972C39.7146 15.4281 39.7962 15.4376 39.876 15.4247C39.9558 15.4117 40.0308 15.3768 40.0935 15.3235C40.1561 15.2701 40.204 15.2003 40.2324 15.1212C40.2607 15.0421 40.2684 14.9565 40.2548 14.8732L39.7582 11.8461L41.8627 9.70255L41.8982 9.66206C41.9489 9.59669 41.9822 9.51842 41.9946 9.43523C42.007 9.35203 41.9981 9.26688 41.9688 9.18845C41.9395 9.11003 41.8909 9.04112 41.8279 8.98876C41.7649 8.93641 41.6897 8.90246 41.6101 8.89039L38.7064 8.44931L37.4084 5.69608C37.3709 5.61631 37.3127 5.54914 37.2406 5.50216C37.1684 5.45519 37.0851 5.4303 37.0002 5.4303C36.9152 5.4303 36.8319 5.45519 36.7598 5.50216C36.6876 5.54914 36.6295 5.61631 36.5919 5.69608L35.2935 8.44931Z" fill="white"/>
</svg>
