<svg id="Layer_4" data-name="Layer 4" xmlns="http://www.w3.org/2000/svg" width="998.8" height="727.41" viewBox="0 0 998.8 727.41"><defs><style>.cls-1{fill:#e63a47;}</style></defs><path class="cls-1" d="M913.75,222.45c-114.2-114.2-299.36-114.21-413.56,0l-.19.18-.19-.18c-114.2-114.21-299.36-114.2-413.56,0s-114.2,299.36,0,413.56L293,842.79A73.11,73.11,0,1,0,396.42,739.4L189.64,532.62A146.22,146.22,0,0,1,396.42,325.84l51.72,51.67a73.51,73.51,0,0,0,103.72,0l51.72-51.67A146.22,146.22,0,0,1,810.36,532.62L603.58,739.4A73.11,73.11,0,0,0,707,842.79L913.75,636C1028,521.81,1028,336.65,913.75,222.45Z" transform="translate(-0.6 -136.8)"/><path class="cls-1" d="M646.64,592.58,762.86,476.36a73.11,73.11,0,0,0-107.59-98.83L551.89,480.91a73.59,73.59,0,0,1-103.78,0L344.73,377.53a73.11,73.11,0,0,0-107.59,98.83l116.21,116.2,43.33,43.19a146,146,0,0,0,206.64,0Z" transform="translate(-0.6 -136.8)"/></svg>