<svg xmlns="http://www.w3.org/2000/svg" width="900" height="1000" viewBox="0 0 900 1000"><defs><style>.cls-1{fill:#4084c5;}</style></defs><g id="Layer_2" data-name="Layer 2"><path class="cls-1" d="M300,500A100,100,0,0,0,200,600l0,300A100,100,0,0,1,0,900V500.5c0-110.46,89.54-200,200-200l300-.5a100,100,0,0,1,0,200Z"/><path class="cls-1" d="M100,200A100,100,0,0,1,100,0H500C720.91,0,900,179.09,900,400S720.91,800,500,800H400a100,100,0,0,1,0-200l100,0c110.46,0,200-89.54,200-200S610.46,200,500,200Z"/></g></svg>