<?xml version="1.0" standalone="no"?>
<!DOCTYPE svg PUBLIC "-//W3C//DTD SVG 20010904//EN"
 "http://www.w3.org/TR/2001/REC-SVG-20010904/DTD/svg10.dtd">
<svg version="1.0" xmlns="http://www.w3.org/2000/svg"
 width="1000.000000pt" height="1000.000000pt" viewBox="0 0 1000.000000 1000.000000"
 preserveAspectRatio="xMidYMid meet">
<metadata>
Created by potrace 1.14, written by Peter Selinger 2001-2017
</metadata>
<g transform="translate(0.000000,1000.000000) scale(0.100000,-0.100000)"
fill="#000000" stroke="none">
<path d="M1389 9996 c-2 -2 -20 -5 -39 -7 -19 -2 -39 -5 -45 -8 -5 -2 -22 -6
-39 -8 -16 -2 -35 -8 -43 -14 -7 -6 -13 -9 -13 -6 0 18 -167 -60 -263 -122
-73 -46 -227 -189 -227 -209 0 -7 -3 -12 -8 -12 -10 0 -68 -89 -109 -168 -26
-50 -64 -151 -68 -182 0 -3 -4 -11 -8 -17 -5 -7 -6 -13 -4 -13 2 0 -2 -30 -9
-67 -29 -153 -6 -373 54 -523 28 -71 71 -159 82 -170 3 -3 19 -25 35 -49 34
-50 163 -183 214 -221 48 -35 127 -82 184 -108 49 -23 193 -72 205 -71 4 1 9
0 12 -1 13 -5 49 -10 86 -13 22 -2 45 -7 52 -11 7 -4 12 -4 12 1 0 4 11 8 25
8 14 0 25 -4 25 -9 0 -6 5 -5 12 2 7 7 17 8 29 2 11 -7 20 -7 24 0 3 5 15 6
29 0 12 -4 29 -4 36 0 8 5 22 4 31 -1 12 -6 20 -5 24 1 5 8 11 8 19 1 7 -6 15
-8 19 -5 9 9 78 11 83 2 3 -4 16 -3 29 2 14 5 25 6 25 2 0 -5 25 -5 55 -2 30
3 55 3 55 -2 0 -4 11 -3 25 2 14 5 25 6 25 2 0 -5 23 -6 50 -2 28 4 50 3 50
-1 0 -4 15 -4 33 1 18 4 43 3 55 -1 14 -5 22 -4 22 3 0 7 4 7 13 0 8 -7 18 -7
27 -2 8 5 21 5 31 -1 12 -6 20 -5 24 1 5 8 11 8 19 1 7 -6 15 -8 19 -5 9 9 78
11 83 2 3 -4 16 -3 29 2 14 5 25 6 25 2 0 -8 89 -7 97 2 4 3 12 1 19 -5 8 -7
14 -7 19 1 4 6 12 7 24 1 10 -6 23 -6 31 -1 8 5 21 5 30 0 9 -5 22 -5 30 0 8
5 21 5 31 -1 12 -6 20 -5 24 1 5 8 11 8 19 1 7 -6 15 -8 19 -5 9 9 78 11 83 2
3 -4 16 -3 29 2 14 5 25 6 25 2 0 -5 23 -6 50 -2 28 4 50 3 50 -1 0 -4 15 -4
33 1 18 4 43 3 55 -1 14 -5 22 -4 22 3 0 7 4 7 13 0 8 -7 18 -7 27 -2 8 5 21
5 31 -1 12 -6 20 -5 24 1 5 8 11 8 19 1 7 -6 15 -8 19 -5 9 9 78 11 83 2 3 -4
16 -3 29 2 14 5 25 6 25 2 0 -5 23 -6 50 -2 28 4 50 3 50 -1 0 -4 15 -4 33 1
18 4 43 3 55 -1 14 -5 22 -4 22 3 0 7 4 7 13 0 8 -7 18 -7 27 -2 8 5 21 5 31
-1 12 -6 20 -5 24 1 5 8 11 8 19 1 7 -6 15 -8 19 -5 8 9 97 10 97 2 0 -4 11
-3 25 2 14 5 25 6 25 2 0 -5 25 -5 55 -2 30 3 55 3 55 -2 0 -4 11 -3 25 2 13
5 26 6 29 1 3 -4 28 -5 56 -1 27 4 50 3 50 -2 0 -4 11 -3 25 2 14 5 25 6 25 2
0 -5 25 -5 55 -2 30 3 55 3 55 -2 0 -4 11 -3 25 2 13 5 26 6 29 2 5 -9 74 -7
83 2 4 3 12 1 19 -5 8 -7 14 -7 19 1 4 6 12 7 24 1 10 -6 23 -6 31 -1 8 5 21
5 30 0 9 -5 22 -5 30 0 8 5 21 5 31 -1 12 -6 20 -5 24 1 5 8 11 8 19 1 7 -6
15 -8 19 -5 9 9 78 11 83 2 3 -4 16 -3 29 2 14 5 25 6 25 2 0 -5 23 -6 50 -2
28 4 50 3 50 -1 0 -4 15 -4 33 1 18 4 43 3 55 -1 14 -5 22 -4 22 3 0 7 4 7 13
0 8 -7 18 -7 27 -2 8 5 21 5 31 -1 12 -6 20 -5 24 1 5 8 11 8 19 1 7 -6 15 -8
19 -5 9 9 78 11 83 2 3 -4 16 -3 29 2 14 5 25 6 25 2 0 -5 23 -6 50 -2 28 4
50 2 50 -2 0 -5 4 -7 8 -4 31 19 256 -2 437 -41 39 -8 78 -16 88 -18 25 -5
197 -63 227 -77 14 -6 34 -14 45 -18 11 -4 58 -27 105 -51 47 -24 95 -48 107
-53 13 -6 23 -14 23 -18 0 -5 5 -8 11 -8 11 0 156 -95 174 -114 6 -6 26 -22
44 -35 47 -33 241 -216 241 -227 0 -2 11 -16 25 -31 53 -59 78 -91 135 -175
33 -47 60 -91 60 -97 0 -6 3 -11 8 -11 4 0 12 -10 18 -23 6 -12 27 -53 46 -92
81 -159 157 -372 173 -489 3 -15 7 -36 10 -46 6 -20 11 -54 22 -145 15 -125 8
-433 -12 -535 -2 -13 -7 -42 -11 -64 -3 -22 -7 -43 -9 -46 -2 -3 -6 -21 -9
-40 -8 -50 -68 -231 -107 -325 -71 -170 -216 -403 -319 -515 -148 -161 -192
-200 -400 -359 -97 -73 -436 -233 -542 -255 -13 -3 -61 -16 -108 -29 -47 -13
-95 -23 -107 -22 -13 1 -23 -1 -23 -5 0 -3 -12 -6 -27 -7 -16 -1 -48 -4 -73
-8 -25 -3 -76 -8 -115 -10 -38 -2 -72 -4 -75 -5 -13 -5 -90 -1 -100 5 -5 3
-10 1 -10 -5 0 -6 -5 -8 -11 -5 -6 4 -33 7 -60 6 -27 -1 -73 -1 -101 -1 -29 0
-60 0 -68 0 -8 0 -26 0 -40 1 -14 0 -32 0 -40 0 -8 -1 -26 -1 -40 0 -14 0 -32
0 -40 0 -19 -2 -59 0 -85 3 -11 1 -24 0 -29 -3 -14 -7 -103 -4 -116 4 -5 3
-10 1 -10 -5 0 -6 -5 -8 -11 -5 -10 7 -29 7 -161 4 -25 -1 -50 1 -55 4 -4 2
-17 1 -28 -3 -11 -4 -30 -4 -41 1 -12 4 -24 5 -27 2 -3 -3 -30 -6 -59 -8 -93
-4 -220 -36 -320 -79 -21 -9 -41 -16 -44 -15 -4 0 -10 -3 -13 -8 -3 -5 -29
-22 -57 -37 -28 -15 -62 -38 -77 -52 -14 -13 -29 -24 -33 -24 -9 0 -155 -151
-174 -179 -8 -13 -22 -33 -31 -45 -24 -31 -90 -156 -83 -156 4 0 1 -6 -5 -14
-9 -11 -53 -124 -51 -133 0 -2 0 -4 -1 -5 -16 -52 -23 -133 -23 -248 0 -120 2
-145 22 -235 21 -92 114 -305 134 -305 4 0 8 -5 8 -11 0 -7 17 -33 37 -58 52
-66 213 -219 213 -204 0 4 10 -3 23 -15 29 -27 170 -98 244 -121 83 -27 168
-43 245 -46 37 -2 71 -6 77 -9 5 -4 12 -2 16 4 4 6 12 7 23 1 9 -5 26 -5 39 0
14 5 23 5 23 -1 0 -6 9 -6 23 -1 13 5 30 5 39 0 11 -6 19 -5 23 1 4 7 12 7 25
0 13 -7 21 -7 25 0 4 6 11 8 16 4 16 -9 80 -11 85 -2 3 5 14 4 24 -2 13 -7 21
-7 25 0 4 7 12 7 25 0 12 -6 21 -7 25 0 3 5 12 7 19 4 22 -9 97 -10 102 -2 3
5 14 4 24 -2 13 -7 21 -7 25 0 4 7 12 7 25 0 13 -7 21 -7 25 0 4 6 12 7 23 1
9 -5 26 -5 39 0 14 5 23 5 23 -1 0 -6 9 -6 23 -1 13 5 30 5 39 0 11 -6 19 -5
23 1 4 7 12 7 25 0 13 -7 21 -7 25 0 4 6 13 7 23 1 11 -6 24 -6 34 0 11 6 19
6 23 -1 4 -7 12 -7 25 0 13 7 21 7 25 0 4 -6 12 -7 23 -1 9 5 26 5 38 1 12 -5
24 -6 27 -3 3 3 45 6 92 8 126 5 194 12 402 40 27 3 39 5 123 20 19 4 44 8 55
10 31 5 73 15 139 31 60 15 82 20 121 28 17 4 134 38 173 51 7 3 14 5 17 5 11
1 199 71 292 108 111 45 336 154 428 207 33 19 69 39 80 45 25 14 48 28 102
63 24 15 47 27 53 27 5 0 10 4 10 8 0 4 25 23 55 41 30 18 55 38 55 43 0 5 4
7 9 3 6 -3 13 0 18 7 4 7 26 26 49 41 22 15 49 35 60 45 11 9 40 33 65 52 25
19 72 57 105 85 72 61 390 377 424 423 14 18 38 47 53 65 54 61 177 226 177
236 0 6 4 11 10 11 5 0 19 18 30 40 11 22 25 40 30 40 6 0 10 6 10 13 0 6 14
30 30 51 17 22 30 45 30 52 0 7 4 14 8 16 9 3 59 87 62 103 1 6 7 17 14 25 23
27 67 110 59 110 -4 0 -3 4 2 8 12 8 145 281 145 297 0 3 9 24 19 48 17 38 54
134 57 147 0 3 4 14 8 25 4 11 12 31 16 45 4 14 11 34 16 45 4 11 8 25 10 30
1 6 14 51 29 100 14 50 29 101 31 115 3 14 7 33 10 42 3 9 7 25 9 35 31 145
47 224 51 253 2 19 7 49 9 65 3 17 8 53 11 80 3 28 7 61 10 75 26 141 26 689
-1 880 -2 19 -7 55 -9 80 -7 58 -15 120 -21 145 -30 152 -38 193 -37 207 0 10
-3 20 -9 23 -5 4 -9 20 -9 36 0 17 -4 38 -9 48 -6 10 -11 28 -13 42 -2 13 -6
29 -10 34 -3 6 -11 36 -19 68 -7 32 -16 60 -21 63 -4 3 -8 16 -8 30 0 13 -4
32 -10 42 -5 9 -16 39 -25 66 -9 27 -24 70 -35 95 -10 25 -33 82 -50 125 -54
134 -224 471 -250 496 -3 3 -11 16 -18 30 -23 46 -70 118 -89 138 -7 7 -13 20
-13 28 0 8 -4 14 -9 14 -5 0 -21 19 -34 43 -74 123 -365 463 -516 601 -18 17
-52 48 -74 69 -23 21 -59 53 -80 70 -22 18 -49 41 -61 52 -12 11 -48 40 -81
65 -33 25 -66 50 -73 57 -7 7 -26 20 -42 30 -17 9 -30 21 -30 25 0 4 -5 8 -11
8 -6 0 -28 13 -48 28 -42 33 -277 182 -286 182 -4 0 -20 9 -36 21 -16 11 -29
17 -29 13 0 -4 -8 -1 -17 7 -18 15 -194 102 -308 152 -127 56 -342 134 -450
162 -13 3 -19 5 -89 26 -33 10 -63 16 -68 13 -4 -3 -8 -1 -8 5 0 5 -8 10 -17
10 -10 0 -36 4 -58 10 -43 11 -50 12 -170 35 -95 18 -135 24 -192 31 -88 10
-139 17 -183 22 -51 7 -4454 16 -4461 9z"/>
<path d="M4296 7003 c-3 -4 -446 -8 -984 -9 -537 -2 -993 -6 -1012 -8 -19 -3
-48 -7 -65 -9 -45 -6 -128 -19 -145 -23 -8 -2 -35 -8 -60 -15 -25 -6 -53 -12
-62 -14 -9 -2 -26 -9 -37 -15 -12 -6 -21 -8 -21 -5 0 2 -24 -5 -52 -16 -29
-12 -61 -23 -72 -25 -10 -2 -24 -8 -32 -15 -8 -6 -14 -9 -14 -5 0 16 -340
-170 -395 -217 -5 -4 -33 -25 -60 -45 -131 -97 -330 -300 -399 -407 -11 -17
-26 -36 -33 -43 -7 -7 -13 -19 -13 -27 0 -7 -7 -16 -16 -19 -8 -3 -12 -10 -9
-16 3 -5 2 -10 -3 -10 -4 0 -19 -19 -32 -42 -70 -128 -100 -190 -100 -203 0
-8 -4 -15 -10 -15 -5 0 -10 -7 -10 -15 0 -8 -4 -23 -10 -33 -10 -17 -26 -58
-30 -77 -1 -5 -6 -16 -12 -22 -6 -7 -8 -13 -5 -13 3 0 -3 -26 -14 -57 -11 -32
-21 -66 -24 -78 -10 -48 -14 -68 -19 -83 -6 -19 -13 -56 -21 -116 -3 -23 -9
-57 -13 -76 -10 -55 -12 -4318 -2 -4375 17 -91 21 -108 41 -169 20 -59 87
-206 98 -216 3 -3 17 -21 31 -40 37 -54 40 -57 116 -133 80 -82 133 -127 152
-127 6 0 12 -4 12 -8 0 -18 220 -116 285 -128 6 -1 12 -3 15 -4 81 -31 361
-34 460 -5 8 2 28 6 44 9 16 3 32 9 35 13 3 4 11 8 16 8 42 1 191 76 275 138
59 44 174 155 203 197 94 135 158 269 181 380 3 14 8 36 11 50 3 14 7 56 9 93
2 37 5 70 7 72 2 2 2 46 -1 99 -3 53 -1 96 3 96 4 0 3 9 -3 20 -6 11 -7 20 -3
20 4 0 6 45 3 100 -3 55 -1 100 3 100 4 0 3 9 -3 20 -6 11 -7 20 -3 20 4 0 6
45 3 100 -3 55 -1 100 3 100 4 0 3 9 -3 20 -6 11 -7 20 -3 20 4 0 6 45 3 100
-3 55 -1 100 3 100 4 0 3 9 -3 20 -6 11 -7 20 -3 20 4 0 6 45 3 100 -3 55 -1
100 3 100 4 0 3 9 -3 20 -6 11 -7 20 -3 20 4 0 6 36 3 80 -3 44 -1 80 3 80 4
0 3 9 -3 19 -7 14 -7 22 0 26 8 5 7 11 -1 21 -9 11 -9 14 0 14 9 0 9 5 1 20
-8 14 -8 20 0 20 8 0 8 6 0 20 -8 14 -8 20 0 20 7 0 8 6 0 19 -7 14 -7 22 0
26 8 5 7 11 -1 21 -9 11 -9 14 0 14 9 0 9 5 1 20 -8 14 -8 20 0 20 8 0 8 6 0
20 -8 14 -8 20 0 20 7 0 8 6 0 19 -7 14 -7 22 0 26 8 5 7 11 -1 21 -9 11 -9
14 0 14 9 0 9 5 1 20 -8 14 -8 20 0 20 8 0 8 6 0 20 -8 14 -8 20 0 20 7 0 8 6
0 19 -7 14 -7 22 0 26 8 5 7 11 -1 21 -9 11 -9 14 0 14 9 0 9 5 1 20 -8 14 -8
20 0 20 8 0 8 6 0 20 -8 14 -8 20 0 20 7 0 8 6 0 19 -7 14 -7 22 0 26 8 5 7
11 -1 21 -9 11 -9 14 0 14 9 0 9 5 1 20 -8 14 -8 20 0 20 8 0 8 6 0 20 -8 14
-8 20 0 20 7 0 8 6 0 19 -7 14 -7 22 0 26 8 5 7 11 -1 21 -9 11 -9 14 0 14 9
0 9 5 1 20 -8 14 -8 20 0 20 8 0 8 6 0 20 -8 14 -8 20 0 20 7 0 8 6 0 19 -7
14 -7 22 0 26 8 5 7 11 -1 21 -9 11 -9 14 0 14 9 0 9 5 1 20 -8 14 -8 20 0 20
8 0 8 6 0 20 -8 14 -8 20 0 20 7 0 8 6 0 19 -7 14 -7 22 0 26 8 5 7 11 -1 21
-9 11 -9 14 0 14 9 0 9 5 1 20 -8 14 -8 20 0 20 8 0 8 6 0 20 -8 14 -8 20 0
20 7 0 8 6 0 19 -7 14 -7 22 0 26 8 5 7 11 -1 21 -9 11 -9 14 0 14 9 0 9 5 1
20 -8 14 -8 20 0 20 8 0 8 6 0 20 -8 14 -8 20 0 20 7 0 8 6 0 19 -7 14 -7 22
0 26 8 5 7 11 -1 21 -9 11 -9 14 0 14 9 0 9 5 1 20 -6 11 -7 20 -3 20 9 0 8
73 -1 96 -2 6 -2 14 1 17 3 3 7 39 10 79 2 40 5 79 5 86 1 6 5 12 9 12 5 0 6
6 3 13 -6 17 39 155 76 232 93 193 271 373 460 462 65 31 150 64 150 58 0 -3
9 -1 20 5 67 36 153 39 1240 40 1052 1 1131 2 1200 15 19 4 44 8 55 10 29 4
132 39 190 65 57 26 188 108 193 121 2 5 8 9 14 9 12 0 168 156 168 168 0 5
10 19 22 32 51 55 150 269 163 353 4 21 7 38 21 120 7 41 7 34 0 152 -8 132
-10 153 -19 161 -4 4 -7 16 -7 26 0 39 -94 273 -120 298 -3 3 -19 25 -35 49
-42 62 -161 182 -220 222 -27 19 -55 39 -61 45 -36 32 -252 121 -315 129 -17
3 -40 7 -50 10 -25 8 -183 19 -239 16 -14 -1 -32 -1 -40 -1 -8 0 -43 0 -78 -1
-34 -1 -65 1 -68 4 -3 3 -17 2 -30 -3 -14 -6 -24 -6 -24 0 0 5 -12 5 -30 0
-18 -5 -32 -5 -36 1 -3 5 -9 7 -14 4 -15 -9 -121 -12 -126 -3 -3 5 -10 6 -15
2 -16 -9 -70 -11 -75 -3 -3 5 -15 4 -27 0 -12 -5 -34 -5 -49 -1 -14 5 -29 5
-32 2 -9 -8 -76 -9 -76 0 0 3 -13 3 -30 -2 -18 -5 -32 -5 -36 1 -3 5 -10 6
-17 2 -15 -9 -97 -10 -97 0 0 5 -5 5 -12 1 -14 -9 -178 -10 -201 -1 -8 3 -18
3 -21 0z"/>
</g>
</svg>
